<svg width="24" height="24" viewBox="0 0 24 24" fill="none" xmlns="http://www.w3.org/2000/svg">
<path d="M9 22C8.45 22 8 21.55 8 21V18H4C3.46957 18 2.96086 17.7893 2.58579 17.4142C2.21071 17.0391 2 16.5304 2 16V4C2 3.46957 2.21071 2.96086 2.58579 2.58579C2.96086 2.21071 3.46957 2 4 2H20C20.5304 2 21.0391 2.21071 21.4142 2.58579C21.7893 2.96086 22 3.46957 22 4V16C22 17.11 21.11 18 20 18H13.9L10.2 21.71C10 21.9 9.75 22 9.5 22H9ZM10 16V19.08L13.08 16H20V4H4V16H10ZM15.84 8.2L14.83 9.21L12.76 7.18L13.77 6.16C13.97 5.95 14.31 5.94 14.55 6.16L15.84 7.41C16.05 7.62 16.06 7.96 15.84 8.2ZM8 11.91L12.17 7.72L14.24 9.8L10.08 14H8V11.91Z" fill="#555555"/>
</svg>
